{"title":"Maguar Vilaghirado 1939-1944","uid":8259390,"size":45333666898,"categoryP":"video","categoryS":"other","magnet":"?xt=urn:btih:6c61f690d61416ccbb44e503b40fd8aafdd69eef&amp;dn=Maguar+Vilaghirado+1939-1944&amp;tr=udp%3A%2F%2Ftracker.openbittorrent.com%3A80&amp;tr=udp%3A%2F%2Fopen.demonii.com%3A1337&amp;tr=udp%3A%2F%2Ftracker.coppersurfer.tk%3A6969&amp;tr=udp%3A%2F%2Fexodus.desync.com%3A6969","seeders":0,"leechers":1,"uploader":null,"files":-1,"time":1363345310,"description":"Hungarian newsreel from 1939 to 1944\n\n\nFormat : AVI\n Format/Info : Audio Video Interleave\n File size : 165 MiB\n Duration : 9mn 13s\n Overall bit rate : 2 498 Kbps\n Writing application : Lavf51.12.1\n\nVideo\n ID : 0\n Format : MPEG-4 Visual\n Format profile : Simple@L1\n Format settings, BVOP : No\n Format settings, QPel : No\n Format settings, GMC : No warppoints\n Format settings, Matrix : Default (H.263)\n Codec ID : DX50\n Codec ID/Hint : DivX 5\n Duration : 9mn 13s\n Bit rate : 2 359 Kbps\n Width : 720 pixels\n Height : 480 pixels\n Display aspect ratio : 3:2\n Frame rate : 25.000 fps\n Standard : NTSC\n Color space : YUV\n Chroma subsampling : 4:2:0\n Bit depth : 8 bits\n Scan type : Progressive\n Compression mode : Lossy\n Bits/(Pixel*Frame) : 0.273\n Stream size : 156 MiB (94%)\n Writing library : Lavc51.40.4\n\nAudio\n ID : 1\n Format : MPEG Audio\n Format version : Version 1\n Format profile : Layer 3\n Mode : Joint stereo\n Mode extension : MS Stereo\n Codec ID : 55\n Codec ID/Hint : MP3\n Duration : 9mn 13s\n Bit rate mode : Constant\n Bit rate : 128 Kbps\n Channel(s) : 2 channels\n Sampling rate : 44.1 KHz\n Compression mode : Lossy\n Stream size : 8.45 MiB (5%)\n Alignment : Aligned on interleaves\n Interleave, duration : 26 ms (0.65 video frame)\n Writing library : LAME3.97","torrent":{"xt":"urn:btih:6c61f690d61416ccbb44e503b40fd8aafdd69eef","amp;dn":"Maguar+Vilaghirado+1939-1944","amp;tr":["udp%3A%2F%2Ftracker.openbittorrent.com%3A80","udp%3A%2F%2Fopen.demonii.com%3A1337","udp%3A%2F%2Ftracker.coppersurfer.tk%3A6969","udp%3A%2F%2Fexodus.desync.com%3A6969"],"infoHash":"6c61f690d61416ccbb44e503b40fd8aafdd69eef","infoHashBuffer":{"type":"Buffer","data":[108,97,246,144,214,20,22,204,187,68,229,3,180,15,216,170,253,214,158,239]},"announce":[],"urlList":[]}}